<mxfile host="app.diagrams.net" modified="2021-09-30T09:52:03.455Z" agent="5.0 (Macintosh; Intel Mac OS X 10_15_7) AppleWebKit/537.36 (KHTML, like Gecko) Chrome/94.0.4606.61 Safari/537.36" etag="F-1YHp5jr_KZsNonB2cA" version="15.3.5" type="github">
  <diagram id="b9z9_DqSBHmfmtNlmLSl" name="Page-1">
    <mxGraphModel dx="2549" dy="-249" grid="1" gridSize="10" guides="1" tooltips="1" connect="1" arrows="1" fold="1" page="1" pageScale="1" pageWidth="827" pageHeight="1169" math="0" shadow="0">
      <root>
        <mxCell id="0" />
        <mxCell id="1" parent="0" />
        <mxCell id="-m25QNUuKfnbdi3Dv_9Z-94" style="edgeStyle=none;curved=1;rounded=0;orthogonalLoop=1;jettySize=auto;html=1;exitX=0.5;exitY=1;exitDx=0;exitDy=0;entryX=0.5;entryY=0;entryDx=0;entryDy=0;endArrow=classic;endFill=1;startSize=14;endSize=8;sourcePerimeterSpacing=8;targetPerimeterSpacing=8;" edge="1" parent="1" source="-m25QNUuKfnbdi3Dv_9Z-53" target="-m25QNUuKfnbdi3Dv_9Z-70">
          <mxGeometry relative="1" as="geometry" />
        </mxCell>
        <mxCell id="-m25QNUuKfnbdi3Dv_9Z-53" value="" style="rounded=1;whiteSpace=wrap;html=1;fillColor=#dae8fc;strokeColor=#6c8ebf;strokeWidth=2;arcSize=5;" vertex="1" parent="1">
          <mxGeometry x="-530" y="1420" width="340" height="120" as="geometry" />
        </mxCell>
        <mxCell id="-m25QNUuKfnbdi3Dv_9Z-70" value="" style="rounded=1;whiteSpace=wrap;html=1;hachureGap=4;pointerEvents=0;strokeWidth=2;fillColor=none;dashed=1;strokeColor=#666666;fontColor=#333333;arcSize=8;" vertex="1" parent="1">
          <mxGeometry x="-530" y="1590" width="340" height="170" as="geometry" />
        </mxCell>
        <mxCell id="-m25QNUuKfnbdi3Dv_9Z-65" value="" style="rounded=1;whiteSpace=wrap;html=1;fillColor=#f8cecc;strokeColor=#b85450;strokeWidth=2;arcSize=5;" vertex="1" parent="1">
          <mxGeometry x="-358" y="1428" width="155" height="105" as="geometry" />
        </mxCell>
        <mxCell id="-m25QNUuKfnbdi3Dv_9Z-38" value="" style="ellipse;whiteSpace=wrap;html=1;aspect=fixed;fillColor=#e1d5e7;strokeColor=#9673a6;" vertex="1" parent="1">
          <mxGeometry x="-475" y="1620" width="40" height="40" as="geometry" />
        </mxCell>
        <mxCell id="-m25QNUuKfnbdi3Dv_9Z-72" style="edgeStyle=none;curved=1;rounded=0;orthogonalLoop=1;jettySize=auto;html=1;exitX=0.5;exitY=0;exitDx=0;exitDy=0;entryX=0.5;entryY=1;entryDx=0;entryDy=0;endArrow=none;endFill=0;startSize=14;endSize=14;sourcePerimeterSpacing=8;targetPerimeterSpacing=8;" edge="1" parent="1" source="-m25QNUuKfnbdi3Dv_9Z-39" target="-m25QNUuKfnbdi3Dv_9Z-43">
          <mxGeometry relative="1" as="geometry" />
        </mxCell>
        <mxCell id="-m25QNUuKfnbdi3Dv_9Z-73" style="edgeStyle=none;curved=1;rounded=0;orthogonalLoop=1;jettySize=auto;html=1;exitX=0.5;exitY=0;exitDx=0;exitDy=0;entryX=0.5;entryY=1;entryDx=0;entryDy=0;endArrow=none;endFill=0;startSize=14;endSize=14;sourcePerimeterSpacing=8;targetPerimeterSpacing=8;" edge="1" parent="1" source="-m25QNUuKfnbdi3Dv_9Z-39" target="-m25QNUuKfnbdi3Dv_9Z-38">
          <mxGeometry relative="1" as="geometry" />
        </mxCell>
        <mxCell id="-m25QNUuKfnbdi3Dv_9Z-39" value="" style="ellipse;whiteSpace=wrap;html=1;aspect=fixed;fillColor=#dae8fc;strokeColor=#6c8ebf;" vertex="1" parent="1">
          <mxGeometry x="-348" y="1704" width="40" height="40" as="geometry" />
        </mxCell>
        <mxCell id="-m25QNUuKfnbdi3Dv_9Z-42" value="" style="ellipse;whiteSpace=wrap;html=1;aspect=fixed;fillColor=#ffe6cc;strokeColor=#d79b00;" vertex="1" parent="1">
          <mxGeometry x="-340" y="1600" width="40" height="40" as="geometry" />
        </mxCell>
        <mxCell id="-m25QNUuKfnbdi3Dv_9Z-48" style="edgeStyle=none;curved=1;rounded=0;orthogonalLoop=1;jettySize=auto;html=1;exitX=0.5;exitY=0;exitDx=0;exitDy=0;entryX=0.5;entryY=1;entryDx=0;entryDy=0;endArrow=none;endFill=0;startSize=14;endSize=14;sourcePerimeterSpacing=8;targetPerimeterSpacing=8;" edge="1" parent="1" source="-m25QNUuKfnbdi3Dv_9Z-43" target="-m25QNUuKfnbdi3Dv_9Z-42">
          <mxGeometry relative="1" as="geometry" />
        </mxCell>
        <mxCell id="-m25QNUuKfnbdi3Dv_9Z-49" style="edgeStyle=none;curved=1;rounded=0;orthogonalLoop=1;jettySize=auto;html=1;exitX=0.5;exitY=0;exitDx=0;exitDy=0;entryX=0.5;entryY=1;entryDx=0;entryDy=0;endArrow=none;endFill=0;startSize=14;endSize=14;sourcePerimeterSpacing=8;targetPerimeterSpacing=8;" edge="1" parent="1" source="-m25QNUuKfnbdi3Dv_9Z-43" target="-m25QNUuKfnbdi3Dv_9Z-44">
          <mxGeometry relative="1" as="geometry" />
        </mxCell>
        <mxCell id="-m25QNUuKfnbdi3Dv_9Z-43" value="" style="ellipse;whiteSpace=wrap;html=1;aspect=fixed;fillColor=#f8cecc;strokeColor=#b85450;" vertex="1" parent="1">
          <mxGeometry x="-301" y="1655" width="40" height="40" as="geometry" />
        </mxCell>
        <mxCell id="-m25QNUuKfnbdi3Dv_9Z-44" value="" style="ellipse;whiteSpace=wrap;html=1;aspect=fixed;fillColor=#d5e8d4;strokeColor=#82b366;" vertex="1" parent="1">
          <mxGeometry x="-261" y="1600" width="40" height="40" as="geometry" />
        </mxCell>
        <mxCell id="-m25QNUuKfnbdi3Dv_9Z-77" value="Sequencer" style="text;html=1;strokeColor=none;fillColor=none;align=center;verticalAlign=middle;whiteSpace=wrap;rounded=0;hachureGap=4;pointerEvents=0;" vertex="1" parent="1">
          <mxGeometry x="-403.5" y="1714" width="40" height="20" as="geometry" />
        </mxCell>
        <mxCell id="-m25QNUuKfnbdi3Dv_9Z-78" value="Shard" style="rounded=0;whiteSpace=wrap;html=1;hachureGap=4;pointerEvents=0;strokeWidth=1;fillColor=#ffe6cc;strokeColor=#d79b00;" vertex="1" parent="1">
          <mxGeometry x="-348" y="1455" width="50" height="50" as="geometry" />
        </mxCell>
        <mxCell id="-m25QNUuKfnbdi3Dv_9Z-80" value="Shard" style="rounded=0;whiteSpace=wrap;html=1;hachureGap=4;pointerEvents=0;strokeWidth=1;fillColor=#d5e8d4;strokeColor=#82b366;" vertex="1" parent="1">
          <mxGeometry x="-263" y="1455" width="50" height="50" as="geometry" />
        </mxCell>
        <mxCell id="-m25QNUuKfnbdi3Dv_9Z-81" value="" style="rounded=0;whiteSpace=wrap;html=1;hachureGap=4;pointerEvents=0;strokeWidth=1;fillColor=#e1d5e7;strokeColor=#9673a6;" vertex="1" parent="1">
          <mxGeometry x="-520" y="1430" width="140" height="100" as="geometry" />
        </mxCell>
        <mxCell id="-m25QNUuKfnbdi3Dv_9Z-82" value="" style="rounded=0;whiteSpace=wrap;html=1;hachureGap=4;pointerEvents=0;strokeWidth=1;fillColor=none;gradientColor=#ffffff;" vertex="1" parent="1">
          <mxGeometry x="-505" y="1490" width="110" height="30" as="geometry" />
        </mxCell>
        <mxCell id="-m25QNUuKfnbdi3Dv_9Z-89" value="" style="rounded=0;whiteSpace=wrap;html=1;hachureGap=4;pointerEvents=0;strokeWidth=1;fillColor=none;gradientColor=#ffffff;" vertex="1" parent="1">
          <mxGeometry x="-505" y="1450" width="110" height="30" as="geometry" />
        </mxCell>
        <mxCell id="-m25QNUuKfnbdi3Dv_9Z-91" value="Shard" style="text;html=1;strokeColor=none;fillColor=none;align=center;verticalAlign=middle;whiteSpace=wrap;rounded=0;hachureGap=4;pointerEvents=0;" vertex="1" parent="1">
          <mxGeometry x="-521" y="1427" width="40" height="20" as="geometry" />
        </mxCell>
        <mxCell id="-m25QNUuKfnbdi3Dv_9Z-95" value="GetOrder(region)" style="text;html=1;align=center;verticalAlign=middle;resizable=0;points=[];autosize=1;strokeColor=none;fillColor=none;" vertex="1" parent="1">
          <mxGeometry x="-367.5" y="1550" width="110" height="20" as="geometry" />
        </mxCell>
        <mxCell id="-m25QNUuKfnbdi3Dv_9Z-97" style="edgeStyle=none;curved=1;rounded=0;orthogonalLoop=1;jettySize=auto;html=1;exitX=0.5;exitY=1;exitDx=0;exitDy=0;entryX=0.5;entryY=0;entryDx=0;entryDy=0;endArrow=classic;endFill=1;startSize=14;endSize=8;sourcePerimeterSpacing=8;targetPerimeterSpacing=8;" edge="1" parent="1" source="-m25QNUuKfnbdi3Dv_9Z-96" target="-m25QNUuKfnbdi3Dv_9Z-89">
          <mxGeometry relative="1" as="geometry" />
        </mxCell>
        <mxCell id="-m25QNUuKfnbdi3Dv_9Z-106" style="edgeStyle=none;curved=1;rounded=0;orthogonalLoop=1;jettySize=auto;html=1;exitX=0.5;exitY=0;exitDx=0;exitDy=0;entryX=0.234;entryY=1.044;entryDx=0;entryDy=0;entryPerimeter=0;endArrow=none;endFill=0;startSize=8;endSize=14;sourcePerimeterSpacing=8;targetPerimeterSpacing=8;startArrow=classic;startFill=1;" edge="1" parent="1" source="-m25QNUuKfnbdi3Dv_9Z-96" target="-m25QNUuKfnbdi3Dv_9Z-103">
          <mxGeometry relative="1" as="geometry" />
        </mxCell>
        <mxCell id="-m25QNUuKfnbdi3Dv_9Z-96" value="Client" style="rounded=0;whiteSpace=wrap;html=1;hachureGap=4;pointerEvents=0;strokeWidth=1;fillColor=none;gradientColor=#ffffff;" vertex="1" parent="1">
          <mxGeometry x="-490" y="1350" width="80" height="30" as="geometry" />
        </mxCell>
        <mxCell id="-m25QNUuKfnbdi3Dv_9Z-98" value="Append(region)" style="text;html=1;align=center;verticalAlign=middle;resizable=0;points=[];autosize=1;strokeColor=none;fillColor=none;" vertex="1" parent="1">
          <mxGeometry x="-454.5" y="1390" width="100" height="20" as="geometry" />
        </mxCell>
        <mxCell id="-m25QNUuKfnbdi3Dv_9Z-100" style="edgeStyle=none;curved=1;rounded=0;orthogonalLoop=1;jettySize=auto;html=1;exitX=0.5;exitY=1;exitDx=0;exitDy=0;entryX=0.5;entryY=0;entryDx=0;entryDy=0;endArrow=classic;endFill=1;startSize=8;endSize=8;sourcePerimeterSpacing=8;targetPerimeterSpacing=8;" edge="1" parent="1" source="-m25QNUuKfnbdi3Dv_9Z-99" target="-m25QNUuKfnbdi3Dv_9Z-78">
          <mxGeometry relative="1" as="geometry" />
        </mxCell>
        <mxCell id="-m25QNUuKfnbdi3Dv_9Z-101" style="edgeStyle=none;curved=1;rounded=0;orthogonalLoop=1;jettySize=auto;html=1;exitX=0.5;exitY=1;exitDx=0;exitDy=0;entryX=0.5;entryY=0;entryDx=0;entryDy=0;endArrow=classic;endFill=1;startSize=14;endSize=8;sourcePerimeterSpacing=8;targetPerimeterSpacing=8;" edge="1" parent="1" source="-m25QNUuKfnbdi3Dv_9Z-99" target="-m25QNUuKfnbdi3Dv_9Z-80">
          <mxGeometry relative="1" as="geometry" />
        </mxCell>
        <mxCell id="-m25QNUuKfnbdi3Dv_9Z-99" value="Client" style="rounded=0;whiteSpace=wrap;html=1;hachureGap=4;pointerEvents=0;strokeWidth=1;fillColor=none;gradientColor=#ffffff;" vertex="1" parent="1">
          <mxGeometry x="-320.5" y="1350" width="80" height="30" as="geometry" />
        </mxCell>
        <mxCell id="-m25QNUuKfnbdi3Dv_9Z-102" value="Read(region)" style="text;html=1;align=center;verticalAlign=middle;resizable=0;points=[];autosize=1;strokeColor=none;fillColor=none;" vertex="1" parent="1">
          <mxGeometry x="-270" y="1390" width="90" height="20" as="geometry" />
        </mxCell>
        <mxCell id="-m25QNUuKfnbdi3Dv_9Z-103" value="Distributed Application" style="rounded=1;whiteSpace=wrap;html=1;hachureGap=4;pointerEvents=0;strokeWidth=1;fillColor=none;gradientColor=#ffffff;" vertex="1" parent="1">
          <mxGeometry x="-530" y="1270" width="340" height="40" as="geometry" />
        </mxCell>
        <mxCell id="-m25QNUuKfnbdi3Dv_9Z-107" style="edgeStyle=none;curved=1;rounded=0;orthogonalLoop=1;jettySize=auto;html=1;exitX=0.5;exitY=0;exitDx=0;exitDy=0;entryX=0.234;entryY=1.044;entryDx=0;entryDy=0;entryPerimeter=0;endArrow=none;endFill=0;startSize=8;endSize=14;sourcePerimeterSpacing=8;targetPerimeterSpacing=8;startArrow=classic;startFill=1;" edge="1" parent="1">
          <mxGeometry relative="1" as="geometry">
            <mxPoint x="-280.3" y="1348.24" as="sourcePoint" />
            <mxPoint x="-280.74000000000007" y="1310" as="targetPoint" />
          </mxGeometry>
        </mxCell>
        <mxCell id="-m25QNUuKfnbdi3Dv_9Z-108" value="Append(region)" style="text;html=1;align=center;verticalAlign=middle;resizable=0;points=[];autosize=1;strokeColor=none;fillColor=none;" vertex="1" parent="1">
          <mxGeometry x="-454.5" y="1316" width="100" height="20" as="geometry" />
        </mxCell>
        <mxCell id="-m25QNUuKfnbdi3Dv_9Z-109" value="Read(region)" style="text;html=1;align=center;verticalAlign=middle;resizable=0;points=[];autosize=1;strokeColor=none;fillColor=none;" vertex="1" parent="1">
          <mxGeometry x="-286" y="1316" width="90" height="20" as="geometry" />
        </mxCell>
        <mxCell id="-m25QNUuKfnbdi3Dv_9Z-111" value="Ordering Layer" style="text;html=1;align=center;verticalAlign=middle;resizable=0;points=[];autosize=1;strokeColor=none;fillColor=none;" vertex="1" parent="1">
          <mxGeometry x="-532" y="1590" width="100" height="20" as="geometry" />
        </mxCell>
        <mxCell id="-m25QNUuKfnbdi3Dv_9Z-119" value="&lt;span&gt;Replica&lt;/span&gt;" style="text;html=1;align=center;verticalAlign=middle;resizable=0;points=[];autosize=1;strokeColor=none;fillColor=none;" vertex="1" parent="1">
          <mxGeometry x="-505" y="1455" width="60" height="20" as="geometry" />
        </mxCell>
        <mxCell id="-m25QNUuKfnbdi3Dv_9Z-120" value="&lt;span&gt;Replica&lt;/span&gt;" style="text;html=1;align=center;verticalAlign=middle;resizable=0;points=[];autosize=1;strokeColor=none;fillColor=none;" vertex="1" parent="1">
          <mxGeometry x="-505" y="1495" width="60" height="20" as="geometry" />
        </mxCell>
        <mxCell id="-m25QNUuKfnbdi3Dv_9Z-121" value="PM" style="shape=cylinder3;whiteSpace=wrap;html=1;boundedLbl=1;backgroundOutline=1;size=4.0738255033556925;hachureGap=4;pointerEvents=0;strokeWidth=1;fillColor=none;gradientColor=#ffffff;" vertex="1" parent="1">
          <mxGeometry x="-438.5" y="1495" width="35" height="20" as="geometry" />
        </mxCell>
        <mxCell id="-m25QNUuKfnbdi3Dv_9Z-122" value="PM" style="shape=cylinder3;whiteSpace=wrap;html=1;boundedLbl=1;backgroundOutline=1;size=4.0738255033556925;hachureGap=4;pointerEvents=0;strokeWidth=1;fillColor=none;gradientColor=#ffffff;" vertex="1" parent="1">
          <mxGeometry x="-438.5" y="1455" width="35" height="20" as="geometry" />
        </mxCell>
      </root>
    </mxGraphModel>
  </diagram>
</mxfile>
